<?xml version="1.0" standalone="no"?><!DOCTYPE svg PUBLIC "-//W3C//DTD SVG 1.1//EN" "http://www.w3.org/Graphics/SVG/1.1/DTD/svg11.dtd"><svg width="200" height="200" viewBox="0 0 200 200" version="1.1" xmlns="http://www.w3.org/2000/svg" xmlns:xlink="http://www.w3.org/1999/xlink"><defs><style type="text/css"><![CDATA[
@font-face { font-family: ifont; src: url("http://at.alicdn.com/t/font_1442373896_4754455.eot?#iefix") format("embedded-opentype"), url("http://at.alicdn.com/t/font_1442373896_4754455.woff") format("woff"), url("http://at.alicdn.com/t/font_1442373896_4754455.ttf") format("truetype"), url("http://at.alicdn.com/t/font_1442373896_4754455.svg#ifont") format("svg"); }

]]></style></defs><g class="transform-group"><g transform="scale(0.1953125, 0.1953125)"><path d="M922.688 334.656 922.688 280.448l-62.784 0L859.904 225.92c0-35.136-28.544-63.68-63.68-63.68l-55.04 0 0-63.36-54.208 0 0 63.36L604.864 162.24l0-63.36L550.656 98.88l0 63.36L468.544 162.24l0-63.36L414.336 98.88l0 63.36L332.224 162.24l0-63.36L278.016 98.88l0 63.36L159.296 162.24l0 118.208L96.512 280.448l0 54.208 62.784 0 0 82.112L96.512 416.768l0 54.208 62.784 0 0 82.112L96.512 553.088l0 54.208 62.784 0 0 82.112L96.512 689.408l0 54.272 62.784 0 0 55.36c0 35.264 28.544 63.744 63.744 63.744l54.976 0 0 62.4 54.208 0L332.224 862.72l82.112 0 0 62.4 54.208 0L468.544 862.72l82.048 0 0 62.4 54.272 0L604.864 862.72l82.048 0 0 62.4 54.208 0L741.12 862.72l118.72 0 0-119.104 62.784 0 0-54.272-62.784 0L859.84 607.232l62.784 0L922.624 553.088l-62.784 0L859.84 470.976l62.784 0L922.624 416.768l-62.784 0L859.84 334.656 922.688 334.656zM793.088 795.904 226.112 795.904 226.112 228.992l566.976 0L793.088 795.904zM299.84 302.72l181.504 0 0 182.016-181.504 0 0-182.016ZM537.408 302.72l181.888 0 0 182.016-181.888 0 0-182.016ZM537.408 540.864l181.888 0 0 180.352-181.888 0 0-180.352ZM299.84 540.864l181.504 0 0 180.352-181.504 0 0-180.352Z" fill="#33475f"></path></g></g></svg>