<?xml version="1.0" standalone="no"?><!DOCTYPE svg PUBLIC "-//W3C//DTD SVG 1.1//EN" "http://www.w3.org/Graphics/SVG/1.1/DTD/svg11.dtd"><svg width="200" height="200" viewBox="0 0 200 200" version="1.1" xmlns="http://www.w3.org/2000/svg" xmlns:xlink="http://www.w3.org/1999/xlink"><defs><style type="text/css"><![CDATA[
@font-face { font-family: ifont; src: url("http://at.alicdn.com/t/font_1442373896_4754455.eot?#iefix") format("embedded-opentype"), url("http://at.alicdn.com/t/font_1442373896_4754455.woff") format("woff"), url("http://at.alicdn.com/t/font_1442373896_4754455.ttf") format("truetype"), url("http://at.alicdn.com/t/font_1442373896_4754455.svg#ifont") format("svg"); }

]]></style></defs><g class="transform-group"><g transform="scale(0.1953125, 0.1953125)"><path d="M484.48 545.92c0 0-56.96 0-88.96 58.88 0 0-170.24 54.4-219.52-5.12 0 0-19.84-44.16-26.88-81.28l-37.12-280.96c0 0-7.68-29.44 34.56-32l258.56-37.12-5.12-58.88-335.36 56.96c0 0-41.6-5.12-32 83.84l98.56 667.52c0 0 34.56 5.12 71.68 2.56l263.68-7.68 71.68-246.4C538.88 666.88 548.48 544 484.48 545.92zM930.56 102.4 600.32 102.4l0 78.72 307.84-2.56 2.56 209.28c-104.96 3.2-289.92 124.8-303.36 138.24-22.4 44.16 56.96 110.72 56.96 110.72S577.92 864 565.76 896c53.76-5.12 354.56-9.6 354.56-9.6 49.28 7.68 71.68-56.96 71.68-56.96L992 159.36C994.56 97.92 930.56 102.4 930.56 102.4zM195.84 345.6c0 40.32 32.64 72.96 72.96 72.96 40.32 0 72.96-32.64 72.96-72.96 0-40.32-32.64-72.96-72.96-72.96C228.48 272.64 195.84 305.28 195.84 345.6z" fill="#33475f"></path></g></g></svg>