<?xml version="1.0" standalone="no"?><!DOCTYPE svg PUBLIC "-//W3C//DTD SVG 1.1//EN" "http://www.w3.org/Graphics/SVG/1.1/DTD/svg11.dtd"><svg width="200" height="200" viewBox="0 0 200 200" version="1.1" xmlns="http://www.w3.org/2000/svg" xmlns:xlink="http://www.w3.org/1999/xlink"><defs><style type="text/css"><![CDATA[
@font-face { font-family: ifont; src: url("http://at.alicdn.com/t/font_1442373896_4754455.eot?#iefix") format("embedded-opentype"), url("http://at.alicdn.com/t/font_1442373896_4754455.woff") format("woff"), url("http://at.alicdn.com/t/font_1442373896_4754455.ttf") format("truetype"), url("http://at.alicdn.com/t/font_1442373896_4754455.svg#ifont") format("svg"); }

]]></style></defs><g class="transform-group"><g transform="scale(0.1953125, 0.1953125)"><path d="M153.043117 972.591143c2.762927 32.334429 30.739095 44.206828 44.208874 44.206828 36.501332-8.978489 43.518143-38.120203 44.207851-44.206828L241.459842 530.503423l-88.416725 0L153.043117 972.591143zM241.459842 44.207851l0 2.594081C241.468029 46.352701 241.459842 45.51052 241.459842 44.207851zM816.172139 464.191134l88.417749 0L904.589888 44.207851c1.381463-30.30726-38.10076-44.207851-44.208874-44.207851-6.109138 0-46.970778 9.086959-44.208874 44.207851L816.172139 464.191134zM573.025377 44.207851c0-6.109138-7.013741-42.827411-44.208874-44.207851-29.595039 0-44.208874 38.098713-44.208874 44.207851L484.607628 331.564511l88.417749 0L573.025377 44.207851zM241.459842 46.801932c-0.091074 5.227048-2.328022-43.005466-44.207851-46.801932-26.140357 1.381463-44.208874 38.098713-44.208874 44.207851l0 132.626623 88.416725 0L241.459842 46.801932zM860.381014 508.398985c-73.242118 0-132.6256 59.363016-132.6256 132.6256 0 73.221652 59.383482 132.626623 132.6256 132.626623 73.241095 0 132.624577-59.405995 132.624577-132.626623C993.006614 567.760978 933.622108 508.398985 860.381014 508.398985zM860.381014 702.242855c-33.803897 0-61.21827-27.41335-61.21827-61.21827 0-33.803897 27.414373-61.21827 61.21827-61.21827 33.80492 0 61.21827 27.414373 61.21827 61.21827C921.599284 674.829506 894.185934 702.242855 860.381014 702.242855zM197.251991 221.043349c-73.243141 0-132.626623 59.361993-132.626623 132.6256 0 73.220628 59.383482 132.6256 132.626623 132.6256 73.242118 0 132.624577-59.404971 132.624577-132.6256C329.876568 280.405341 270.493086 221.043349 197.251991 221.043349zM197.251991 419.981237c-36.632315 0-66.313312-29.702486-66.313312-66.312288 0-36.632315 29.680996-66.313312 66.313312-66.313312 36.631292 0 66.312288 29.680996 66.312288 66.313312C263.564279 390.278751 233.883283 419.981237 197.251991 419.981237zM816.172139 972.591143c-1.381463 34.406624 38.099736 44.206828 44.208874 44.206828 40.647769-1.381463 44.208874-38.120203 44.208874-44.206828L904.589888 817.860083 816.172139 817.860083 816.172139 972.591143zM528.815479 375.773386c-73.242118 0-132.624577 59.361993-132.624577 132.624577 0 73.221652 59.383482 132.6256 132.624577 132.6256 73.242118 0 132.6256-59.404971 132.6256-132.6256C661.442102 435.135378 602.05862 375.773386 528.815479 375.773386zM528.815479 574.712297c-36.631292 0-66.312288-29.702486-66.312288-66.314335 0-36.631292 29.680996-66.312288 66.312288-66.312288 36.632315 0 66.314335 29.680996 66.314335 66.312288C595.129814 545.009811 565.447794 574.712297 528.815479 574.712297zM573.025377 685.23346l-88.417749 0 0 287.357683c4.14439 35.098379 38.10076 44.206828 44.208874 44.206828 10.254551 0 45.590338-11.873422 44.208874-44.206828L573.025377 685.23346z" fill="#33475f"></path></g></g></svg>