<?xml version="1.0" standalone="no"?><!DOCTYPE svg PUBLIC "-//W3C//DTD SVG 1.1//EN" "http://www.w3.org/Graphics/SVG/1.1/DTD/svg11.dtd"><svg width="200" height="200" viewBox="0 0 200 200" version="1.1" xmlns="http://www.w3.org/2000/svg" xmlns:xlink="http://www.w3.org/1999/xlink"><defs><style type="text/css"><![CDATA[
@font-face { font-family: ifont; src: url("http://at.alicdn.com/t/font_1442373896_4754455.eot?#iefix") format("embedded-opentype"), url("http://at.alicdn.com/t/font_1442373896_4754455.woff") format("woff"), url("http://at.alicdn.com/t/font_1442373896_4754455.ttf") format("truetype"), url("http://at.alicdn.com/t/font_1442373896_4754455.svg#ifont") format("svg"); }

]]></style></defs><g class="transform-group"><g transform="scale(0.1953125, 0.1953125)"><path d="M672.003 320 351.997 320C334.323 320 320 334.326 320 351.997l0 320.006C320 689.677 334.325 704 351.997 704l320.006 0C689.677 704 704 689.675 704 672.003L704 351.997C704 334.324 689.675 320 672.003 320zM896.006 544C913.678 544 928 529.673 928 512c0-17.677-14.324-32-31.994-32L832 480l0-96 64.006 0C913.678 384 928 369.673 928 352c0-17.677-14.324-32-31.994-32L832 320l0-64c0-35.349-28.654-64-64-64l-64 0 0-64.006C704 110.322 689.673 96 672 96c-17.677 0-32 14.324-32 31.994L640 192l-96 0 0-64.006C544 110.322 529.673 96 512 96c-17.677 0-32 14.324-32 31.994L480 192l-96 0 0-64.006C384 110.322 369.673 96 352 96c-17.677 0-32 14.324-32 31.994L320 192l-64 0c-35.349 0-64 28.654-64 64l0 64-64.006 0C110.322 320 96 334.327 96 352c0 17.677 14.324 32 31.994 32L192 384l0 96-64.006 0C110.322 480 96 494.327 96 512c0 17.677 14.324 32 31.994 32L192 544l0 96-64.006 0C110.322 640 96 654.327 96 672c0 17.677 14.324 32 31.994 32L192 704l0 64c0 35.349 28.654 64 64 64l64 0 0 64.006C320 913.678 334.327 928 352 928c17.677 0 32-14.324 32-31.994L384 832l96 0 0 64.006C480 913.678 494.327 928 512 928c17.677 0 32-14.324 32-31.994L544 832l96 0 0 64.006C640 913.678 654.327 928 672 928c17.677 0 32-14.324 32-31.994L704 832l64 0c35.349 0 64-28.654 64-64l0-64 64.006 0C913.678 704 928 689.673 928 672c0-17.677-14.324-32-31.994-32L832 640l0-96L896.006 544zM768 768 288.004 768C270.329 768 256 753.671 256 735.996L256 256l479.996 0C753.672 256 768 270.329 768 288.004L768 768z" fill="#0fcdd0"></path></g></g></svg>