<?xml version="1.0" standalone="no"?><!DOCTYPE svg PUBLIC "-//W3C//DTD SVG 1.1//EN" "http://www.w3.org/Graphics/SVG/1.1/DTD/svg11.dtd"><svg width="200" height="200" viewBox="0 0 200 200" version="1.1" xmlns="http://www.w3.org/2000/svg" xmlns:xlink="http://www.w3.org/1999/xlink"><defs><style type="text/css"><![CDATA[
@font-face { font-family: ifont; src: url("http://at.alicdn.com/t/font_1442373896_4754455.eot?#iefix") format("embedded-opentype"), url("http://at.alicdn.com/t/font_1442373896_4754455.woff") format("woff"), url("http://at.alicdn.com/t/font_1442373896_4754455.ttf") format("truetype"), url("http://at.alicdn.com/t/font_1442373896_4754455.svg#ifont") format("svg"); }

]]></style></defs><g class="transform-group"><g transform="scale(0.1953125, 0.1953125)"><path d="M511.695055 959.405843c-247.264547 0-447.709765-200.445218-447.709765-447.709765S264.429485 63.986313 511.695055 63.986313 959.40482 264.431531 959.40482 511.696078 758.959601 959.405843 511.695055 959.405843zM719.543893 302.17925l-0.005117 0c-20.953218-20.953218-54.928007-20.953218-75.881225 0L510.675842 435.159938 379.379517 303.857473c-20.874423-20.874423-54.716182-20.874423-75.590606 0l-0.005117 0c-20.869307 20.880563-20.869307 54.721299 0 75.595722l131.296325 131.296325L302.172087 643.664715c-20.958334 20.953218-20.958334 54.917774 0 75.869968l0.005117 0c20.947078 20.958334 54.92289 20.958334 75.881225 0l132.902916-132.896776 132.975571 132.980687c20.87954 20.85191 54.721299 20.85191 75.590606 0l0-0.022513c20.874423-20.874423 20.874423-54.698786 0-75.573209L586.55195 511.041162l132.991943-132.986827C740.497111 357.096001 740.497111 323.131445 719.543893 302.17925z" fill="#eb4f38"></path></g></g></svg>