<?xml version="1.0" standalone="no"?><!DOCTYPE svg PUBLIC "-//W3C//DTD SVG 1.1//EN" "http://www.w3.org/Graphics/SVG/1.1/DTD/svg11.dtd"><svg width="200.5859375" height="200" viewBox="0 0 200.5859375 200" version="1.1" xmlns="http://www.w3.org/2000/svg" xmlns:xlink="http://www.w3.org/1999/xlink"><defs><style type="text/css"><![CDATA[
@font-face { font-family: ifont; src: url("http://at.alicdn.com/t/font_1442373896_4754455.eot?#iefix") format("embedded-opentype"), url("http://at.alicdn.com/t/font_1442373896_4754455.woff") format("woff"), url("http://at.alicdn.com/t/font_1442373896_4754455.ttf") format("truetype"), url("http://at.alicdn.com/t/font_1442373896_4754455.svg#ifont") format("svg"); }

]]></style></defs><g class="transform-group"><g transform="scale(0.1953125, 0.1953125)"><path d="M1026.1 891c0 0 0-583.9 0-641.3 0-77.9-70.9-70.6-70.9-70.6s-423.5 0.5-401.1 0c-24.3 0.5-36.3-12.7-36.3-12.7s-16.9-29-47.2-74.9c-31.8-48.1-68.6-40.2-68.6-40.2L89.9 51.3c-86.5 0-87.5 83.2-87.5 83.2s0 692.3 0 752.2c0 92.8 70.1 81.3 70.1 81.3s836.3 0 889.1 0C1036.6 968 1026.1 891 1026.1 891z" fill="#0fcdd0" id="svg_file"></path></g></g></svg>