<?xml version="1.0" standalone="no"?><!DOCTYPE svg PUBLIC "-//W3C//DTD SVG 1.1//EN" "http://www.w3.org/Graphics/SVG/1.1/DTD/svg11.dtd"><svg width="200" height="200" viewBox="0 0 200 200" version="1.1" xmlns="http://www.w3.org/2000/svg" xmlns:xlink="http://www.w3.org/1999/xlink"><defs><style type="text/css"><![CDATA[
@font-face { font-family: ifont; src: url("http://at.alicdn.com/t/font_1442373896_4754455.eot?#iefix") format("embedded-opentype"), url("http://at.alicdn.com/t/font_1442373896_4754455.woff") format("woff"), url("http://at.alicdn.com/t/font_1442373896_4754455.ttf") format("truetype"), url("http://at.alicdn.com/t/font_1442373896_4754455.svg#ifont") format("svg"); }

]]></style></defs><g class="transform-group"><g transform="scale(0.1953125, 0.1953125)"><path d="M512 82.285714c198.912 0 366.189714 135.186286 415.158857 318.646857l0-5.504c0 22.729143 18.413714 41.142857 41.142857 41.142857 22.710857 0 41.142857-18.413714 41.142857-41.142857l1.078857 0c-0.475429-2.048-1.170286-4.004571-1.682286-6.034286-0.548571-3.693714-1.481143-7.241143-2.944-10.569143C947.218286 160.749714 748.635429 0 512 0 229.229714 0 0 229.229714 0 512s229.229714 512 512 512c239.506286 0 440.374857-164.48 496.329143-386.578286l-0.566857-0.128c0.987429-3.529143 1.682286-7.186286 1.682286-11.026286 0-22.729143-18.432-41.142857-41.142857-41.142857-20.461714 0-37.302857 14.976-40.484571 34.56C879.981714 804.845714 712.100571 941.714286 512 941.714286 274.669714 941.714286 82.285714 749.330286 82.285714 512S274.669714 82.285714 512 82.285714z" fill="#01aded"></path></g></g></svg>