<?xml version="1.0" standalone="no"?><!DOCTYPE svg PUBLIC "-//W3C//DTD SVG 1.1//EN" "http://www.w3.org/Graphics/SVG/1.1/DTD/svg11.dtd"><svg width="200" height="200" viewBox="0 0 200 200" version="1.1" xmlns="http://www.w3.org/2000/svg" xmlns:xlink="http://www.w3.org/1999/xlink"><defs><style type="text/css"><![CDATA[

]]></style></defs><g class="transform-group"><g transform="scale(0.1953125, 0.1953125)"><path d="M512 65.983389c-245.919634 0-446.016611 200.095256-446.016611 446.016611 0 245.952318 200.064292 446.016611 446.016611 446.016611S958.016611 757.952318 958.016611 512C958.016611 266.080366 757.952318 65.983389 512 65.983389zM727.231286 438.432254 471.00766 697.439161c-0.063647 0.063647-0.192662 0.096331-0.25631 0.192662-0.096331 0.063647-0.096331 0.192662-0.192662 0.25631-2.048757 1.983389-4.575729 3.19957-6.944443 4.544765-1.183497 0.672598-2.143368 1.696116-3.392232 2.176052-3.839484 1.536138-7.904314 2.33603-11.967424 2.33603-4.095794 0-8.224271-0.799892-12.096439-2.399677-1.279828-0.543583-2.303346-1.632469-3.519527-2.303346-2.368714-1.343475-4.832039-2.528692-6.880796-4.544765-0.063647-0.063647-0.096331-0.192662-0.159978-0.25631-0.063647-0.096331-0.192662-0.096331-0.25631-0.192662l-126.016611-129.503454c-12.320065-12.672705-12.032791-32.928047 0.639914-45.248112 12.672705-12.287381 32.895364-12.063755 45.248112 0.639914l103.26354 106.112189 233.279613-235.839269c12.416396-12.576374 32.704421-12.703669 45.248112-0.25631C739.520387 405.600538 739.647682 425.85588 727.231286 438.432254z" fill="#0cd8db"></path></g></g></svg>